<svg id="Layer_1" data-name="Layer 1" xmlns="http://www.w3.org/2000/svg" viewBox="0 0 437.43 56.73"><defs><style>.cls-1{fill:#007cba;}</style></defs><title>CR_Logo_blue</title><path class="cls-1" d="M79.34,29.31H89l21.36,56.18H99.13l-5.23-14H74.28l-5.14,14H57.9Zm12.58,34.5L84.17,41.73,76.1,63.81Z" transform="translate(-1 -29.16)"/><path class="cls-1" d="M121.28,85.49V29.31H132.2V75.92h28.65v9.57Z" transform="translate(-1 -29.16)"/><path class="cls-1" d="M172.24,85.49V29.31h10.92V75.92h28.65v9.57Z" transform="translate(-1 -29.16)"/><path class="cls-1" d="M224.7,85.49V29.31h23.35a14.54,14.54,0,0,1,6.57,1.5,16.94,16.94,0,0,1,5.18,4,19.15,19.15,0,0,1,3.4,5.62,17,17,0,0,1,1.23,6.29,19,19,0,0,1-.95,6,17.52,17.52,0,0,1-2.69,5.19,15.24,15.24,0,0,1-4.2,3.8,14.58,14.58,0,0,1-5.38,2l14,21.84h-4.67l-13.61-21.2h-18.2v21.2Zm4-24.92h19.7a10.25,10.25,0,0,0,4.91-1.19,12.46,12.46,0,0,0,3.8-3.12,13.92,13.92,0,0,0,2.41-4.44,15.84,15.84,0,0,0,.83-5.1,13.91,13.91,0,0,0-1-5.18,14.41,14.41,0,0,0-2.69-4.39,13.3,13.3,0,0,0-3.95-3A10.55,10.55,0,0,0,247.89,33H228.74Z" transform="translate(-1 -29.16)"/><path class="cls-1" d="M318.23,81.85v3.64H280.81V29.31h36.71V33H284.84V55h28.57v3.48H284.84V81.85Z" transform="translate(-1 -29.16)"/><path class="cls-1" d="M332.08,29.31l21.37,51.12,21.36-51.12h4.27L355.35,85.49h-3.72L327.81,29.31Z" transform="translate(-1 -29.16)"/><path class="cls-1" d="M415,82.17A18.83,18.83,0,0,0,424.46,80a16.36,16.36,0,0,0,5.94-5.61,24,24,0,0,0,3.09-7.92,44.75,44.75,0,0,0,.91-8.94V29.31h4V57.56a46.09,46.09,0,0,1-1.23,10.76,25.88,25.88,0,0,1-4,9.06,19.9,19.9,0,0,1-7.2,6.21,27.25,27.25,0,0,1-22.16-.11,20.08,20.08,0,0,1-7.24-6.41A26.32,26.32,0,0,1,392.73,68a47.47,47.47,0,0,1-1.14-10.45V29.31h4V57.56a44.87,44.87,0,0,0,.91,9.1,22.3,22.3,0,0,0,3.17,7.87,16.83,16.83,0,0,0,6,5.54A18.79,18.79,0,0,0,415,82.17Z" transform="translate(-1 -29.16)"/><path class="cls-1" d="M43.56,50.21l9.3-3.5S49.15,33.56,36.3,30.14c-10.87-3-24.53.68-31.54,12.27s-4,29.88,7,37.88S35,86.67,44.39,81.1c8-5.33,9-12.79,9-12.79l-8.9-3.24S42.24,76.25,28.08,76.25a18,18,0,0,1-6.56-1.16c-.87,0-6.86,2.37-6.86,2.37s.7-6.1.43-6.95A24.17,24.17,0,0,1,9.88,57.78C9.67,53.08,12.16,41.67,25,39S43.56,50.21,43.56,50.21Z" transform="translate(-1 -29.16)"/></svg>